# xmcd CD database file
#
# Track frame offsets:
#	150
#	15862
#	54178
#	73678
#	95342
#	131062
#	160121
#	183387
#	204959
#
# Disc length: 3032 seconds
#
# Revision: 0
# Processed by: cddbd v1.5PL3 Copyright (c) Steve Scherf et al.
# Submitted via: CDex 1.50
#
DISCID=690bd609
DTITLE=Rob Costlow - Sophomore Jinx
DYEAR=2004
DGENRE=New Age
TTITLE0=I Do
TTITLE1=L.A. - Passing By
TTITLE2=Lost or Found
TTITLE3=Summer Garden
TTITLE4=Bliss
TTITLE5=Goodbyes
TTITLE6=Forever
TTITLE7=Oceans
TTITLE8=Family
EXTD=YEAR: 2004
EXTT0=
EXTT1=
EXTT2=
EXTT3=
EXTT4=
EXTT5=
EXTT6=
EXTT7=
EXTT8=
PLAYORDER=
